<mxfile host="app.diagrams.net" agent="Mozilla/5.0 (Windows NT 10.0; Win64; x64) AppleWebKit/537.36 (KHTML, like Gecko) Chrome/127.0.0.0 Safari/537.36" version="24.7.6">
  <diagram name="Page-1" id="aSh16s_FejJTfDu06x_u">
    <mxGraphModel dx="1434" dy="738" grid="1" gridSize="10" guides="1" tooltips="1" connect="1" arrows="1" fold="1" page="1" pageScale="1" pageWidth="827" pageHeight="1169" math="0" shadow="0">
      <root>
        <mxCell id="0" />
        <mxCell id="1" parent="0" />
        <mxCell id="BW9Cfgi7wb87ly_cptnb-1" value="EnvironmentSpecularMaterial" style="rounded=1;whiteSpace=wrap;html=1;fillColor=#bac8d3;strokeColor=#23445d;" vertex="1" parent="1">
          <mxGeometry x="10" y="10" width="210" height="40" as="geometry" />
        </mxCell>
        <mxCell id="BW9Cfgi7wb87ly_cptnb-6" value="" style="edgeStyle=orthogonalEdgeStyle;rounded=0;orthogonalLoop=1;jettySize=auto;html=1;" edge="1" parent="1" source="BW9Cfgi7wb87ly_cptnb-4" target="BW9Cfgi7wb87ly_cptnb-5">
          <mxGeometry relative="1" as="geometry" />
        </mxCell>
        <mxCell id="BW9Cfgi7wb87ly_cptnb-7" value="4 bytes after" style="edgeLabel;html=1;align=center;verticalAlign=middle;resizable=0;points=[];" vertex="1" connectable="0" parent="BW9Cfgi7wb87ly_cptnb-6">
          <mxGeometry x="-0.075" y="6" relative="1" as="geometry">
            <mxPoint as="offset" />
          </mxGeometry>
        </mxCell>
        <mxCell id="BW9Cfgi7wb87ly_cptnb-4" value="Base color hash" style="rounded=1;whiteSpace=wrap;html=1;fillColor=#b0e3e6;strokeColor=#0e8088;" vertex="1" parent="1">
          <mxGeometry x="20" y="130" width="120" height="40" as="geometry" />
        </mxCell>
        <mxCell id="BW9Cfgi7wb87ly_cptnb-9" value="" style="edgeStyle=orthogonalEdgeStyle;rounded=0;orthogonalLoop=1;jettySize=auto;html=1;" edge="1" parent="1" source="BW9Cfgi7wb87ly_cptnb-5" target="BW9Cfgi7wb87ly_cptnb-8">
          <mxGeometry relative="1" as="geometry" />
        </mxCell>
        <mxCell id="BW9Cfgi7wb87ly_cptnb-5" value="Lightmap hash" style="rounded=1;whiteSpace=wrap;html=1;fillColor=#b0e3e6;strokeColor=#0e8088;" vertex="1" parent="1">
          <mxGeometry x="250" y="130" width="120" height="40" as="geometry" />
        </mxCell>
        <mxCell id="BW9Cfgi7wb87ly_cptnb-8" value="Two flags bytes" style="rounded=1;whiteSpace=wrap;html=1;fillColor=#fad9d5;strokeColor=#ae4132;" vertex="1" parent="1">
          <mxGeometry x="410" y="130" width="120" height="40" as="geometry" />
        </mxCell>
        <mxCell id="BW9Cfgi7wb87ly_cptnb-10" value="Param 10 (Base color input) : 10 bytes" style="swimlane;whiteSpace=wrap;html=1;fillColor=#d0cee2;strokeColor=#56517e;" vertex="1" parent="1">
          <mxGeometry x="10" y="90" width="540" height="110" as="geometry" />
        </mxCell>
        <mxCell id="BW9Cfgi7wb87ly_cptnb-11" value="4 Bytes" style="text;html=1;align=center;verticalAlign=middle;whiteSpace=wrap;rounded=0;" vertex="1" parent="BW9Cfgi7wb87ly_cptnb-10">
          <mxGeometry x="40" y="80" width="60" height="30" as="geometry" />
        </mxCell>
        <mxCell id="BW9Cfgi7wb87ly_cptnb-12" value="&amp;nbsp;4 Bytes" style="text;html=1;align=center;verticalAlign=middle;whiteSpace=wrap;rounded=0;" vertex="1" parent="BW9Cfgi7wb87ly_cptnb-10">
          <mxGeometry x="270" y="80" width="60" height="30" as="geometry" />
        </mxCell>
        <mxCell id="BW9Cfgi7wb87ly_cptnb-13" value="" style="shape=flexArrow;endArrow=classic;html=1;rounded=0;entryX=0.25;entryY=0;entryDx=0;entryDy=0;exitX=0.5;exitY=1;exitDx=0;exitDy=0;fillColor=#d0cee2;strokeColor=#56517e;" edge="1" parent="1" source="BW9Cfgi7wb87ly_cptnb-1" target="BW9Cfgi7wb87ly_cptnb-10">
          <mxGeometry width="50" height="50" relative="1" as="geometry">
            <mxPoint x="120" y="60" as="sourcePoint" />
            <mxPoint x="170" y="270" as="targetPoint" />
          </mxGeometry>
        </mxCell>
      </root>
    </mxGraphModel>
  </diagram>
</mxfile>
